<?xml version="1.0" standalone="no"?>
<!DOCTYPE svg PUBLIC "-//W3C//DTD SVG 20010904//EN"
 "http://www.w3.org/TR/2001/REC-SVG-20010904/DTD/svg10.dtd">
<svg version="1.0" xmlns="http://www.w3.org/2000/svg"
 width="512.000000pt" height="512.000000pt" viewBox="0 0 512.000000 512.000000"
 preserveAspectRatio="xMidYMid meet">

<g transform="translate(0.000000,512.000000) scale(0.100000,-0.100000)"
fill="#000000" stroke="#fff">
<path d="M177 5106 c-66 -24 -111 -61 -142 -117 l-30 -54 0 -2375 0 -2375 31
-55 c35 -61 106 -113 171 -124 65 -10 4684 -7 4723 4 65 18 123 63 155 121
l30 54 0 2375 0 2375 -31 55 c-35 61 -106 113 -171 124 -21 3 -1086 6 -2368 5
-1934 0 -2336 -2 -2368 -13z m2754 -646 c368 -29 880 -123 1042 -192 220 -94
386 -276 455 -500 25 -79 66 -342 83 -518 6 -69 11 -226 11 -350 0 -339 -43
-717 -101 -887 -85 -249 -278 -433 -533 -507 -114 -33 -117 -35 -133 -67 -12
-23 -15 -88 -15 -357 0 -340 -1 -352 -41 -352 -10 0 -168 127 -351 282 -183
155 -353 290 -378 302 -42 19 -60 20 -310 18 -398 -5 -723 24 -1080 94 -362
71 -488 116 -622 222 -156 124 -244 274 -288 486 -50 247 -64 414 -64 771 0
359 12 512 64 765 54 267 201 460 438 579 164 83 702 184 1132 214 115 8 570
6 691 -3z"/>
<path d="M1712 3725 c-55 -24 -62 -57 -62 -280 0 -199 8 -250 41 -271 8 -5
119 -11 247 -14 l234 -5 34 -37 34 -38 0 -535 c0 -573 0 -578 49 -605 27 -14
502 -13 534 1 53 24 52 12 57 605 5 524 6 553 24 573 31 34 80 41 294 41 l204
0 29 29 29 29 0 222 c0 246 -5 269 -61 289 -22 8 -274 11 -843 11 -680 -1
-816 -3 -844 -15z"/>
</g>
</svg>
